<?xml version="1.0" encoding="UTF-8"?>
<svg id="Capa_1" xmlns="http://www.w3.org/2000/svg" version="1.1" viewBox="0 0 762.51 631.57">
  <!-- Generator: Adobe Illustrator 29.3.1, SVG Export Plug-In . SVG Version: 2.1.0 Build 151)  -->
  <defs>
    <style>
      .st0 {
        fill: #1d1d1b;
      }
    </style>
  </defs>
  <path class="st0" d="M760.17,325.79c-3.1-19.23-9.92-35.63-20.47-49.22-10.55-13.58-24.17-24.08-40.87-31.49-16.69-7.4-38.42-11.11-65.17-11.13,35.94-18.45,61.38-40.73,76.32-66.83,14.95-26.1,20.14-53.29,15.58-81.59-4.79-29.76-22.73-52.83-53.79-69.23-25.91-13.67-59.6-18.72-101.01-15.21-.36.05-.74.08-1.12.1-7.91.7-16.07,1.67-24.54,2.99-24.36,3.79-47.63,9.44-69.85,16.84-37.1,2.81-63.18,6.02-78.19,9.63-30.11,6.88-55.22,16.85-75.28,29.9-20.08,13.05-35.49,29.25-46.25,48.61-10.75,19.36-16.13,39.36-16.13,60.01,0,14.63,2.94,25.6,8.82,32.91,5.87,7.31,13.69,10.97,23.45,10.97,6.88,0,12.76-2.43,17.64-7.31,4.87-4.87,7.31-10.47,7.31-16.78,0-4.87-2.01-12.62-6.02-23.23-3.73-9.46-5.59-16.78-5.59-21.94,0-15.77,6.01-31.26,18.04-46.46,12.03-15.2,30.07-26.67,54.13-34.42,17.47-5.73,61.58-11.76,132.33-18.07-51.88,58.51-119.65,152.01-203.34,280.49-73.94,113.57-129.82,188.14-167.65,223.7-23.23,21.79-44.46,32.69-63.67,32.69-5.74,0-17.21-2.01-34.42-6.02-6.88-1.44-12.33-2.15-16.35-2.15-6.88,0-12.62,2.43-17.21,7.31-4.58,4.87-6.88,11.04-6.88,18.5,0,9.75,3.95,17.71,11.83,23.88,7.89,6.16,19.86,9.25,35.92,9.25,30.68,0,63.02-14.27,97.01-42.8,33.99-28.54,87.49-98.44,160.51-209.72,61.42-1.5,108.78-2.23,142.12-2.21l-5.33,56.59c-4.45,45.95-12.24,76.42-23.35,91.4-11.12,14.98-32.1,25.76-62.95,32.35l-2.8,25.09c22.67-8.31,49.14-14.82,79.38-19.53,19.86-3.09,38.91-5.61,57.15-7.55,38.33-3.58,63.28-6.27,74.85-8.07,39.73-6.19,76.42-21.37,110.07-45.58,33.64-24.2,57.61-51.83,71.91-82.87,14.3-31.05,18.92-62.3,13.85-93.77ZM624.17,43.42c21.57,12.2,34.35,30.69,38.35,55.49,5.74,35.6-2.58,68.37-24.92,98.32-20.21,27.09-52.78,45.23-97.6,54.5l22.79-168.61c2.22-15.7,5.36-33.06,9.34-51.96,20.75.33,38.11,4.41,52.04,12.27ZM506.19,91.47c-.14.05-.28.09-.42.14.19-.26.38-.5.57-.76-.05.2-.1.41-.15.61ZM430.23,347.25c-44.11,0-78.06-.43-101.83-1.29l110.53-163.8c5.15-7.56,15.31-21.56,30.41-41.89-.73,26.2-2.52,52.2-6.92,77.75l-12.12,128.77c-6.93.3-13.64.47-20.07.47ZM659.93,457.78c-17.67,29.34-45.67,49.31-83.95,59.98-3.06.18-6.06.27-8.98.27-16.93,0-36-2.72-57.22-8.17l19.39-178.1,7.03-52.03c37.95-5.38,64.6-6.72,79.86-4.01,17.03,3.04,31.63,10.71,43.79,23.02,12.16,12.32,19.79,28.11,22.89,47.36,6.25,38.81-1.36,76.04-22.81,111.68Z"/>
</svg>